<svg xmlns="http://www.w3.org/2000/svg" viewBox="0 0 1200 630" width="1200" height="630">
  <defs>
    <radialGradient id="bgGlow" cx="50%" cy="38%" r="65%">
      <stop offset="0%" stop-color="#1c1917" />
      <stop offset="60%" stop-color="#0c0a09" />
      <stop offset="100%" stop-color="#050505" />
    </radialGradient>
    <linearGradient id="borderGrad" x1="0%" y1="0%" x2="100%" y2="100%">
      <stop offset="0%" stop-color="#44403c" stop-opacity="0.8" />
      <stop offset="50%" stop-color="#292524" stop-opacity="0.4" />
      <stop offset="100%" stop-color="#1c1917" stop-opacity="0.8" />
    </linearGradient>
  </defs>

  <rect width="1200" height="630" fill="url(#bgGlow)" />
  <rect x="24" y="24" width="1152" height="582" rx="20" fill="none" stroke="url(#borderGrad)" stroke-width="1.5" />

  <g transform="translate(100, 110)">
    <g transform="translate(0, 30)">
      <rect x="0" y="0" width="370" height="38" rx="19" fill="#1c1917" stroke="#44403c" stroke-width="1" />
      <circle cx="20" cy="19" r="5" fill="#10b981" />
      <text x="35" y="24" font-family="-apple-system, BlinkMacSystemFont, 'Segoe UI', Roboto, sans-serif" font-size="13" font-weight="600" fill="#a8a29e" letter-spacing="1.5">TRANSITION TO FUTURE OF WEB3</text>
    </g>

    <g transform="translate(0, 115)">
      <rect x="0" y="8" width="64" height="64" rx="16" fill="#292524" stroke="#44403c" stroke-width="1.5" />
      <path d="M32 20 C32 28, 38 34, 46 34 C38 34, 32 40, 32 48 C32 40, 26 34, 18 34 C26 34, 32 28, 32 20 Z" fill="#f59e0b" />
      <text x="88" y="58" font-family="Georgia, serif" font-size="60" font-weight="700" fill="#fafaf9" letter-spacing="-0.5">
        Reflect &amp; Journal AI
      </text>
    </g>

    <g transform="translate(0, 245)">
      <text x="0" y="0" font-family="-apple-system, BlinkMacSystemFont, 'Segoe UI', Roboto, sans-serif" font-size="28" font-weight="400" fill="#e7e5e4">
        Private by design — user-isolated journaling with Gemini
      </text>
      <text x="0" y="40" font-family="-apple-system, BlinkMacSystemFont, 'Segoe UI', Roboto, sans-serif" font-size="18" font-weight="400" fill="#a8a29e">
        Cryptographic token validation, owner-bound data isolation, and mindful AI dialogue.
      </text>
    </g>

    <g transform="translate(0, 345)">
      <rect x="0" y="0" width="280" height="42" rx="10" fill="#1c1917" stroke="#292524" stroke-width="1" />
      <text x="18" y="26" font-family="monospace" font-size="13" font-weight="500" fill="#d6d3d1">
        Strict Owner-Bound Isolation
      </text>

      <rect x="305" y="0" width="340" height="42" rx="10" fill="#1c1917" stroke="#292524" stroke-width="1" />
      <text x="18" y="26" transform="translate(305, 0)" font-family="monospace" font-size="13" font-weight="500" fill="#a8a29e">
        https://g-ai-solana.ai.studio/
      </text>
    </g>
  </g>
</svg>
